<?xml version="1.0" encoding="utf-8"?>
<!-- Generator: Adobe Illustrator 25.0.1, SVG Export Plug-In . SVG Version: 6.00 Build 0)  -->
<svg version="1.0" id="Layer_1" xmlns="http://www.w3.org/2000/svg" xmlns:xlink="http://www.w3.org/1999/xlink" x="0px" y="0px"
	 viewBox="0 0 265.9 179" style="enable-background:new 0 0 265.9 179;" xml:space="preserve">
<style type="text/css">
	.st0{fill:#41F0A5;}
	.st1{fill:#484848;}
	.st2{fill:none;}
</style>
<path class="st0" d="M45.1,56.6c0-1.3,1-2.3,2.3-2.3h80.5c0.5,0,1,0,1.5,0.1c0.9,0.4,1.5,1.2,1.5,2.2v7c-0.1,1.3-1.2,2.3-2.5,2.2
	c-1.2-0.1-2.1-1-2.2-2.2c0-1.6,0-3.1,0-4.7H49.8v61h76.5c0-1.4,0-2.8,0-4.1c-0.1-1.3,0.9-2.4,2.2-2.5c1.3-0.1,2.4,0.9,2.5,2.2
	c0,0.1,0,0.2,0,0.3c0,2.2,0,4.4,0,6.6c-0.1,1.2-1.1,2.2-2.3,2.2H48.3c-0.6,0.1-1.2,0-1.7-0.2c-0.9-0.4-1.4-1.2-1.4-2.1
	C45.1,122.3,45.1,56.6,45.1,56.6z"/>
<path class="st1" d="M80.1,73.3c0.1-0.6,0.6-1.1,1.3-1.1h10.3c0.6,0,1.2,0.4,1.3,1c0.2,0.7-0.3,1.4-1,1.6c-0.1,0-0.1,0-0.2,0
	c-1.2,0-2.5,0-3.7,0v12.6c0.1,0.8-0.5,1.6-1.3,1.7c-0.8,0.1-1.6-0.5-1.7-1.3c0-0.1,0-0.2,0-0.3c0-4.2,0-8.4,0-12.6
	c-1.2,0-2.5,0-3.8,0c-0.7-0.1-1.3-0.7-1.2-1.4C80.1,73.4,80.1,73.4,80.1,73.3 M95.3,72.2c0.7-0.2,1.5,0.2,1.8,0.9
	c0,0.1,0.1,0.2,0.1,0.3c0,1.7,0,3.3,0,5c0.7-0.8,1.8-1.3,2.9-1.2c1.2-0.1,2.4,0.3,3.3,1.1c0.8,0.9,1.2,2.1,1.1,3.3
	c0,2.1,0,4.2,0,6.2c-0.1,0.8-0.9,1.3-1.6,1.2c-0.1,0-0.2,0-0.3-0.1c-0.6-0.2-0.9-0.7-0.9-1.3c0-1.9,0-3.9,0-5.8
	c0-0.6-0.2-1.2-0.7-1.6c-0.5-0.4-1.1-0.5-1.7-0.4c-0.6,0-1.2,0.3-1.6,0.7c-0.3,0.5-0.5,1.1-0.5,1.7c0,1.8,0,3.7,0,5.5
	c0,0.6-0.5,1.2-1.1,1.3c-0.7,0.2-1.5-0.3-1.6-1.1c0-0.1,0-0.1,0-0.2c0-4.7,0-9.4,0-14.1C94.4,72.9,94.8,72.4,95.3,72.2 M203.7,72.9
	c0.7-0.7,1.8-0.9,2.7-0.6c0.8,0.2,1.5,0.8,1.8,1.6c3.9,9.3,7.8,18.7,11.7,28.1c0.3,0.7,0.6,1.5,0.9,2.2c0.2,1.2-0.3,2.3-1.4,2.9
	c-1.4,0.7-3.1,0.2-3.8-1.2c0,0,0,0,0,0c-1.2-2.8-2.3-5.7-3.5-8.5h-12.8c-1.1,2.5-2.1,5.1-3.2,7.6c-0.2,0.6-0.5,1.1-0.9,1.6
	c-0.9,0.9-2.3,1.1-3.4,0.4c-0.8-0.5-1.3-1.4-1.3-2.4c0.1-0.5,0.2-1,0.4-1.5c4-9.5,7.9-18.9,11.8-28.4
	C202.9,74,203.2,73.4,203.7,72.9 M205.6,81.3c-1.5,3.7-3,7.4-4.5,11.1h9.1C208.6,88.7,207.2,85,205.6,81.3 M126,74.7
	c0-1.3,1-2.4,2.3-2.5c0.8-0.1,1.6,0.1,2.2,0.7c0.4,0.4,0.7,0.8,0.9,1.3l11.1,19.7l11.1-19.7c0.4-1,1.1-1.7,2.1-2
	c1.4-0.3,2.9,0.6,3.2,2c0,0.1,0,0.2,0,0.2c0,1.3,0,2.6,0,3.9v25.3c0.1,0.7,0,1.4-0.2,2.1c-0.4,0.9-1.2,1.5-2.2,1.6
	c-1.1,0.1-2.2-0.5-2.7-1.5c-0.2-0.6-0.3-1.2-0.2-1.8c0-6.4,0-12.8,0-19.2l-8.5,14.9c-0.2,0.5-0.5,0.9-0.8,1.3
	c-1.1,1-2.8,0.9-3.9-0.2c-0.1-0.1-0.2-0.2-0.3-0.4c-3-5.2-5.9-10.4-8.9-15.6v19.9c0,0.6-0.2,1.2-0.6,1.7c-0.6,0.7-1.6,1.1-2.6,0.9
	c-0.9-0.2-1.7-0.8-2-1.7c-0.1-0.5-0.2-1-0.1-1.5C126,94.3,126,84.5,126,74.7 M165.1,75.1c0.1-1.4,1.2-2.4,2.6-2.5c1.9,0,3.8,0,5.8,0
	c2.5-0.1,5,0,7.4,0.5c2,0.4,3.8,1.5,5.1,3c1.4,1.9,2,4.2,1.9,6.5c-0.1,2.4-1.4,4.6-3.3,5.9c1.7,0.8,3,2.1,3.9,3.7
	c1,2,1.3,4.3,0.9,6.5c-0.3,2-1.2,3.8-2.6,5.2c-1.7,1.5-3.8,2.5-6.1,2.8c-1.5,0.2-3.1,0.2-4.6,0.2c-2.7,0-5.4,0-8.1,0
	c-1.1,0-2.1-0.7-2.5-1.7c-0.2-0.4-0.2-0.9-0.2-1.4C165.1,94.3,165.1,84.7,165.1,75.1 M170.6,86.7h6.1c1.3,0,2.6-0.3,3.8-0.9
	c0.9-0.5,1.5-1.4,1.8-2.4c0.2-1,0.2-2.1-0.2-3.1c-0.3-0.9-1-1.6-1.9-2c-1.2-0.5-2.5-0.8-3.8-0.7h-5.8
	C170.6,80.6,170.6,83.7,170.6,86.7 M170.6,102c2.8,0,5.5,0,8.3,0c1.4,0,2.7-0.5,3.7-1.4c0.8-0.9,1.3-2,1.3-3.2
	c0.2-1.4-0.2-2.7-1-3.9c-0.7-0.9-1.8-1.6-2.9-1.8c-1.2-0.2-2.4-0.3-3.7-0.2h-5.8C170.5,95,170.5,98.5,170.6,102 M107.2,79
	c0.9-1.1,2.1-1.7,3.5-1.8c1.4-0.2,2.8,0.2,4,1c1.1,1,1.7,2.4,1.6,3.9c0.1,0.5,0,1.1-0.3,1.6c-0.3,0.4-0.8,0.5-1.3,0.5h-5.8
	c0,0.8,0.4,1.6,1.2,2c1.1,0.5,2.3,0.5,3.3,0c0.5-0.2,0.9-0.7,1.5-0.6c0.6,0,1.1,0.5,1.2,1.1c0.1,0.5-0.2,0.9-0.5,1.2
	c-1.1,0.9-2.6,1.3-4,1.2c-1.5,0.1-2.9-0.5-3.9-1.5c-1-1.1-1.5-2.5-1.4-4C106,82,106.4,80.3,107.2,79 M110.2,79.9
	c-0.7,0.4-1.2,1.1-1.2,1.9h4.7c0-0.7-0.3-1.4-0.9-1.8C111.9,79.5,111,79.5,110.2,79.9 M59.1,92c0-0.8,0.6-1.5,1.4-1.5
	c1.6,0,3.1,0,4.7,0c1.3-0.1,2.6,0.4,3.6,1.2c0.9,0.8,1.5,1.9,1.6,3.1c0.2,1.4-0.1,2.9-0.9,4.1c-0.9,1.1-2.3,1.8-3.8,1.8
	c-1.2,0-2.4,0-3.6,0c0,1.7,0,3.4,0,5.1c-0.1,0.8-0.8,1.4-1.7,1.3c-0.7-0.1-1.2-0.6-1.3-1.3C59.1,101.2,59.1,96.6,59.1,92 M62.1,93.2
	v4.8h2.9c0.6,0,1.2-0.2,1.6-0.5c0.4-0.4,0.7-1,0.7-1.6c0.1-0.7-0.1-1.4-0.5-1.9c-0.4-0.5-1-0.7-1.7-0.7
	C64.1,93.2,63.1,93.2,62.1,93.2 M102.6,95.5c1.4-0.2,2.9,0.1,4.1,0.9c1.1,1,1.8,2.4,1.7,3.9c0.1,0.6-0.1,1.1-0.3,1.6
	c-0.3,0.3-0.8,0.5-1.3,0.4h-5.9c0,0.8,0.3,1.5,1,2c1,0.5,2.3,0.6,3.3,0.1c0.6-0.2,1.1-0.9,1.9-0.7c0.7,0.2,1.1,0.9,0.9,1.5
	c-0.1,0.2-0.2,0.4-0.3,0.6c-2.1,2.3-5.6,2.4-7.8,0.3c-1.2-1.1-1.8-2.5-1.8-4.1c-0.2-1.7,0.2-3.4,1.1-4.8
	C100,96.3,101.3,95.6,102.6,95.5 M102.2,98.2c-0.6,0.4-1.1,1.1-1.1,1.9h4.7c0-0.8-0.4-1.5-1-1.9C103.9,97.7,103,97.7,102.2,98.2
	 M75.2,95.6c1.3-0.3,2.6-0.2,3.9,0.2c1.1,0.4,1.9,1.2,2.4,2.2c0.6,1.3,0.8,2.8,0.7,4.2c0,1.4-0.6,2.7-1.5,3.7
	c-1,0.9-2.2,1.4-3.5,1.4c-1.5,0.1-2.9-0.3-4.1-1.2c-1.1-1-1.7-2.5-1.7-4c-0.2-1.6,0.1-3.2,0.9-4.6C72.9,96.5,73.9,95.7,75.2,95.6
	 M76,97.8c-1,0.3-1.7,1.2-1.8,2.2c-0.2,1.2-0.1,2.5,0.3,3.6c0.7,1.2,2.2,1.6,3.4,0.9c0.3-0.2,0.6-0.5,0.8-0.8
	c0.4-0.9,0.6-1.8,0.5-2.7c0-0.9-0.3-1.8-0.8-2.5C77.8,97.8,76.8,97.6,76,97.8 M113,96.7c0.6-0.8,1.6-1.2,2.6-1.2
	c0.7,0.1,1.3,0.7,1.2,1.4c-0.1,0.6-0.6,1.2-1.2,1.2c-0.7,0-1.3,0.2-1.9,0.6c-0.5,0.5-0.8,1.3-0.8,2c0,1.7,0,3.4,0,5.2
	c0,0.8-0.6,1.4-1.4,1.4s-1.4-0.6-1.4-1.4c0-3,0-6,0-9c0-0.8,0.7-1.4,1.4-1.3c0,0,0.1,0,0.1,0c0.6,0.1,1.2,0.6,1.3,1.2 M82.6,96.7
	c0.2-0.7,0.8-1.2,1.5-1.1c0.5,0,1,0.4,1.2,0.9c0.7,1.9,1.3,3.8,1.9,5.7c0.5-1.9,1-3.8,1.6-5.6c0.2-0.6,0.8-1.1,1.5-1
	c0.6,0,1.1,0.4,1.2,1c0.5,1.9,1,3.8,1.6,5.6c0.6-1.9,1.3-3.9,1.9-5.8c0.3-0.7,1.2-1.1,2-0.7c0.1,0,0.2,0.1,0.3,0.2
	c0.5,0.4,0.6,1,0.4,1.6c-1.1,3-2.2,6-3.4,9c-0.2,0.5-0.7,0.8-1.2,0.8c-0.6,0-1.2-0.4-1.4-1c-0.5-1.7-0.9-3.3-1.4-5
	c-0.5,1.6-0.9,3.1-1.3,4.7c-0.1,0.5-0.4,0.9-0.8,1.2c-0.7,0.3-1.6,0-1.9-0.7c0,0,0,0,0-0.1c-1-2.7-2.1-5.4-3.1-8.1
	C82.7,97.8,82.6,97.3,82.6,96.7"/>
<rect x="37.9" y="48" class="st2" width="190.1" height="83"/>
</svg>
