<svg width="368" height="298" viewBox="0 0 368 298" fill="none" xmlns="http://www.w3.org/2000/svg">
<path d="M302.893 162.131C302.893 104.926 267.02 56.1661 216.535 36.9632L202.289 12.2896C201.444 10.8576 199.902 9.9397 198.25 9.9397H139.797C138.108 9.9397 136.566 10.8209 135.758 12.2896L121.512 36.9632C71.0261 56.1661 35.1538 104.963 35.1538 162.131C35.1538 169.401 35.7413 176.56 36.8795 183.537L22.6334 208.21C21.7889 209.642 21.7889 211.441 22.6334 212.91L51.8599 263.542C52.7044 265.011 54.2465 265.892 55.8988 265.892H84.4277C107.486 284.728 136.933 296 169.023 296C201.114 296 230.56 284.691 253.619 265.892H282.148C283.836 265.892 285.379 265.011 286.186 263.542L315.413 212.91C316.257 211.478 316.257 209.679 315.413 208.21L301.167 183.537C302.305 176.56 302.893 169.437 302.893 162.131Z" fill="#45E0A8" stroke="white" stroke-width="2" stroke-miterlimit="10" stroke-linecap="round" stroke-linejoin="round"/>
<path d="M127.827 120.935L274.621 218.785C278.366 221.282 282.845 220.437 285.452 216.802L354.663 113.151C357.123 109.736 357.27 103.09 351.983 99.492L191.641 3.80814C187.859 1.42155 183.416 1.34812 181.654 4.46904L124.963 109.406C122.797 113.408 124.045 118.401 127.827 120.935Z" fill="#45E0A8"/>
<mask id="mask0" mask-type="alpha" maskUnits="userSpaceOnUse" x="123" y="2" width="234" height="219">
<path d="M127.827 120.935L274.621 218.785C278.366 221.282 282.845 220.437 285.452 216.802L354.663 113.151C357.123 109.736 357.27 103.09 351.983 99.492L191.641 3.80814C187.859 1.42155 183.416 1.34812 181.654 4.46904L124.963 109.406C122.797 113.408 124.045 118.401 127.827 120.935Z" fill="#6EDBFF"/>
</mask>
<g mask="url(#mask0)">
<path d="M188.74 -5.44458L173.356 14.9332L342.693 131.142L348.017 130.15L365.274 107.129" fill="black"/>
</g>
<path d="M127.827 120.935L274.621 218.785C278.366 221.282 282.845 220.437 285.452 216.802L354.663 113.151C357.123 109.736 357.27 103.09 351.983 99.492L191.641 3.80814C187.859 1.42155 183.416 1.34812 181.654 4.46904L124.963 109.406C122.797 113.408 124.045 118.401 127.827 120.935Z" stroke="black" stroke-width="1.2" stroke-miterlimit="10" stroke-linecap="round" stroke-linejoin="round"/>
<path d="M283.139 219.042L275.061 222.603L259.824 206.668" fill="#45E0A8"/>
<path d="M283.139 219.042L275.061 222.603L259.824 206.668" stroke="black" stroke-width="1.2" stroke-miterlimit="10" stroke-linecap="round" stroke-linejoin="round"/>
<path d="M88.3931 243.054L102.786 238.648L109.358 244.156L112.516 266.296L109.726 272.575C109.726 272.575 95.9201 278.78 82.6286 273.897C69.3371 269.013 66.8404 263.653 66.8404 263.653L71.944 247.938L88.3931 243.054Z" fill="#45E0A8"/>
<path d="M64.4905 258.255C64.4905 258.255 70.255 270.115 87.8791 271.804C105.503 273.529 119.052 262 119.052 262C119.052 262 117.877 275.145 116.995 280.542C116.702 282.341 105.32 293.503 87.6588 289.978C69.9613 286.454 66.0326 274.227 66.0326 274.227L64.4905 258.255Z" fill="white" stroke="black" stroke-width="1.2" stroke-miterlimit="10" stroke-linecap="round" stroke-linejoin="round"/>
<path d="M120.63 124.569L266.873 222.052C270.618 224.549 275.649 223.631 278.256 219.96L350.918 111.131C353.378 107.716 352.46 102.943 348.899 100.667L184.518 3.03686C181.287 0.980718 176.991 2.08222 175.155 5.46016L117.546 112.086C115.196 116.418 116.555 121.816 120.63 124.569Z" fill="#45E0A8"/>
<mask id="mask1" mask-type="alpha" maskUnits="userSpaceOnUse" x="116" y="2" width="237" height="222">
<path d="M120.63 124.569L266.873 222.052C270.618 224.549 275.649 223.631 278.256 219.96L350.918 111.131C353.378 107.716 352.46 102.943 348.899 100.667L184.518 3.03686C181.287 0.980718 176.991 2.08222 175.155 5.46016L117.546 112.086C115.196 116.418 116.555 121.816 120.63 124.569Z" fill="#6EDBFF"/>
</mask>
<g mask="url(#mask1)">
<path d="M180.993 -2.177L165.609 18.2008L339.573 128.131L356.646 104.706" fill="black"/>
</g>
<path d="M120.63 124.569L266.873 222.052C270.618 224.549 275.649 223.631 278.256 219.96L350.918 111.131C353.378 107.716 352.46 102.943 348.899 100.667L184.518 3.03686C181.287 0.980718 176.991 2.08222 175.155 5.46016L117.546 112.086C115.196 116.418 116.555 121.816 120.63 124.569Z" stroke="black" stroke-width="1.2" stroke-miterlimit="10" stroke-linecap="round" stroke-linejoin="round"/>
<path d="M240.511 70.8897C213.891 56.3131 181.323 63.8401 165.241 87.449C164.25 88.8809 163.332 90.3863 162.488 91.9651C161.717 93.3604 133.481 144.654 133.481 144.654L175.412 201.785L223.18 181.995C247.046 170.502 255.822 164.297 264.744 148.032C279.614 120.861 268.746 86.3475 240.511 70.8897Z" fill="white"/>
<path d="M245.21 96.3711L238.969 106.652L286.407 136.539L292.538 126.479L245.21 96.3711Z" fill="#45E0A8"/>
<path d="M224.098 129.086L217.526 139.183L265.111 169.181L271.206 159.084L224.098 129.086Z" fill="#45E0A8"/>
<path d="M235.517 113.371L274.51 138.302" stroke="#45E0A8" stroke-width="1.2" stroke-miterlimit="10" stroke-linecap="round" stroke-linejoin="round"/>
<path d="M231.258 119.833L252.297 133.345" stroke="#45E0A8" stroke-width="1.2" stroke-miterlimit="10" stroke-linecap="round" stroke-linejoin="round"/>
<path d="M214.221 145.351L253.215 170.282" stroke="#45E0A8" stroke-width="1.2" stroke-miterlimit="10" stroke-linecap="round" stroke-linejoin="round"/>
<path d="M209.962 151.813L231.001 165.325" stroke="#45E0A8" stroke-width="1.2" stroke-miterlimit="10" stroke-linecap="round" stroke-linejoin="round"/>
<path d="M216.498 113.261C207.98 127.177 191.714 133.529 176.293 130.371L178.973 116.162C188.52 118.108 198.617 114.179 203.904 105.55C206.144 101.879 207.245 97.8032 207.319 93.7644L221.969 94.2784C221.895 100.777 220.133 107.35 216.498 113.261Z" fill="white" stroke="#45E0A8" stroke-width="1.2" stroke-miterlimit="10" stroke-linecap="round" stroke-linejoin="round"/>
<path d="M176.293 130.371C171.887 129.49 167.554 127.801 163.516 125.304C152.023 118.254 145.414 106.358 144.79 94.058L159.44 93.6174C159.844 101.255 163.956 108.635 171.079 113.004C173.613 114.546 176.293 115.574 179.01 116.125L176.293 130.371Z" fill="#45E0A8" stroke="#45E0A8" stroke-width="1.2" stroke-miterlimit="10" stroke-linecap="round" stroke-linejoin="round"/>
<mask id="mask2" mask-type="alpha" maskUnits="userSpaceOnUse" x="133" y="63" width="139" height="139">
<path d="M240.511 70.8897C213.891 56.3131 181.323 63.8401 165.241 87.449C164.25 88.8809 163.332 90.3863 162.488 91.9651C161.717 93.3604 133.481 144.654 133.481 144.654L175.412 201.785L223.18 181.995C247.046 170.502 255.822 164.297 264.744 148.032C279.614 120.861 268.746 86.3475 240.511 70.8897Z" fill="white"/>
</mask>
<g mask="url(#mask2)">
<path d="M214.846 187.355L136.309 134.997" stroke="#45E0A8" stroke-width="1.2" stroke-miterlimit="10" stroke-linecap="round" stroke-linejoin="round"/>
<path d="M221.969 94.2781L207.319 93.764C207.429 85.6129 203.243 77.4985 195.643 72.8722C190.319 69.6044 184.261 68.613 178.643 69.6044L176.881 60.9025L197.112 57.5613C199.168 58.369 201.187 59.3971 203.17 60.6088C215.433 68.099 222.152 81.1334 221.969 94.2781Z" fill="black" stroke="black" stroke-width="1.2" stroke-miterlimit="10" stroke-linecap="round" stroke-linejoin="round"/>
</g>
<path d="M178.166 200.647C189.731 191.1 188.997 171.053 176.477 155.889C163.956 140.725 144.423 136.172 132.857 145.718C130.25 147.885 117.546 166.059 117.546 166.059L127.093 177.625C128.745 182.068 131.242 186.437 134.546 190.476C137.887 194.515 141.706 197.783 145.745 200.243L153.896 213.094C153.859 213.13 175.522 202.813 178.166 200.647Z" fill="#45E0A8"/>
<mask id="mask3" mask-type="alpha" maskUnits="userSpaceOnUse" x="117" y="140" width="70" height="74">
<path d="M178.166 200.647C189.731 191.1 188.997 171.053 176.477 155.889C163.956 140.725 144.423 136.172 132.857 145.718C130.25 147.885 117.546 166.059 117.546 166.059L127.093 177.625C128.745 182.068 131.242 186.437 134.546 190.476C137.887 194.515 141.706 197.783 145.745 200.243L153.896 213.094C153.859 213.13 175.522 202.813 178.166 200.647Z" fill="#6EDBFF"/>
</mask>
<g mask="url(#mask3)">
<path d="M189.548 171.237C183.159 175.129 166.71 183.537 166.71 183.537L163.295 204.98L158.522 212.066L179.157 206.008L190.576 183.978L189.548 171.237Z" fill="black" stroke="black" stroke-width="1.2" stroke-miterlimit="10" stroke-linecap="round" stroke-linejoin="round"/>
<path d="M148.388 140.725C148.388 140.725 139.98 142.634 129.039 156.109C112.626 176.34 126.799 142.818 126.799 142.818L148.388 140.725Z" fill="white"/>
</g>
<path d="M178.166 200.647C189.731 191.1 188.997 171.053 176.477 155.889C163.956 140.725 144.423 136.172 132.857 145.718C130.25 147.885 117.546 166.059 117.546 166.059L127.093 177.625C128.745 182.068 131.242 186.437 134.546 190.476C137.887 194.515 141.706 197.783 145.745 200.243L153.896 213.094C153.859 213.13 175.522 202.813 178.166 200.647Z" stroke="black" stroke-width="1.2" stroke-miterlimit="10" stroke-linecap="round" stroke-linejoin="round"/>
<path d="M135.648 150.491L130.654 156.843" stroke="black" stroke-width="1.2" stroke-miterlimit="10" stroke-linecap="round" stroke-linejoin="round"/>
<path d="M143.028 141.092L137.961 147.554" stroke="black" stroke-width="1.2" stroke-miterlimit="10" stroke-linecap="round" stroke-linejoin="round"/>
<path d="M154.116 141.496L140.457 157.688" stroke="black" stroke-width="1.2" stroke-miterlimit="10" stroke-linecap="round" stroke-linejoin="round"/>
<path d="M153.272 160.258L165.205 146.159" stroke="black" stroke-width="1.2" stroke-miterlimit="10" stroke-linecap="round" stroke-linejoin="round"/>
<path d="M158.963 170.319L171.446 160.038" stroke="black" stroke-width="1.2" stroke-miterlimit="10" stroke-linecap="round" stroke-linejoin="round"/>
<path d="M164.727 179.534L184.04 169.033" stroke="black" stroke-width="1.2" stroke-miterlimit="10" stroke-linecap="round" stroke-linejoin="round"/>
<path d="M167.848 190.88L186.353 180.599" stroke="black" stroke-width="1.2" stroke-miterlimit="10" stroke-linecap="round" stroke-linejoin="round"/>
<path d="M166.783 200.683L184.628 191.504" stroke="black" stroke-width="1.2" stroke-miterlimit="10" stroke-linecap="round" stroke-linejoin="round"/>
<path d="M161.459 208.614C171.006 200.72 170.308 183.243 159.367 169.988C148.425 156.733 131.388 152.695 121.842 160.589C113.764 167.271 102.859 189.228 102.859 189.228L129.699 221.796C129.736 221.796 153.382 215.297 161.459 208.614Z" fill="#45E0A8"/>
<mask id="mask4" mask-type="alpha" maskUnits="userSpaceOnUse" x="102" y="156" width="67" height="66">
<path d="M161.459 208.614C171.006 200.72 170.308 183.243 159.367 169.988C148.425 156.733 131.388 152.695 121.842 160.589C113.764 167.271 102.859 189.228 102.859 189.228L129.699 221.796C129.736 221.796 153.382 215.297 161.459 208.614Z" fill="#6EDBFF"/>
</mask>
<g mask="url(#mask4)">
<path d="M148.388 140.725C148.388 140.725 135.868 147.114 125.33 160.846C114.792 174.578 108.514 185.703 108.514 185.703L97.0583 187.245L129.002 143.405L148.388 140.725Z" fill="white"/>
</g>
<path d="M137.006 206.521C137.006 206.521 145.378 204.061 155.034 199.435C163.993 195.139 171.153 191.945 171.153 191.945C171.153 191.945 168.656 201.601 163.956 206.558C159.22 211.515 133.738 220.584 133.738 220.584L137.006 206.521Z" fill="black" stroke="black" stroke-width="1.2" stroke-miterlimit="10" stroke-linecap="round" stroke-linejoin="round"/>
<path d="M135.391 199.325L166.71 183.537L169.133 188.677L135.941 203.18L135.391 199.325Z" fill="black" stroke="black" stroke-width="1.2" stroke-miterlimit="10" stroke-linecap="round" stroke-linejoin="round"/>
<path d="M161.459 208.614C171.006 200.72 170.308 183.243 159.367 169.988C148.425 156.733 131.388 152.695 121.842 160.589C113.764 167.271 102.859 189.228 102.859 189.228L129.699 221.796C129.736 221.796 153.382 215.297 161.459 208.614Z" stroke="black" stroke-width="1.2" stroke-miterlimit="10" stroke-linecap="round" stroke-linejoin="round"/>
<path d="M135.06 219.189C142.147 213.351 141.449 200.867 133.555 191.247C125.661 181.627 113.507 178.617 106.421 184.455C105.87 184.895 65.335 224.88 65.335 224.88L87.5487 251.793C87.5854 251.83 134.509 219.666 135.06 219.189Z" fill="black" stroke="black" stroke-width="1.2" stroke-miterlimit="10" stroke-linecap="round" stroke-linejoin="round"/>
<path d="M87.5853 251.83C92.799 247.534 92.1014 237.988 85.9697 230.571C79.838 223.154 70.6221 220.621 65.4083 224.916C64.674 225.541 53.1082 238.061 53.1082 238.061L72.3478 261.413C72.3111 261.376 86.8142 252.417 87.5853 251.83Z" fill="#45E0A8"/>
<mask id="mask5" mask-type="alpha" maskUnits="userSpaceOnUse" x="53" y="222" width="39" height="40">
<path d="M87.5853 251.83C92.799 247.534 92.1014 237.988 85.9697 230.571C79.838 223.154 70.6221 220.621 65.4083 224.916C64.674 225.541 53.1082 238.061 53.1082 238.061L72.3478 261.413C72.3111 261.376 86.8142 252.417 87.5853 251.83Z" fill="#6EDBFF"/>
</mask>
<g mask="url(#mask5)">
<path d="M75.9093 222.86L57.4041 240.411L49.8037 239.603L62.471 224.145L75.9093 222.86Z" fill="white"/>
</g>
<path d="M70.8424 256.897L93.6803 240.007L91.8811 248.195L70.6221 262.221L70.8424 256.897Z" fill="black" stroke="black" stroke-width="1.2" stroke-miterlimit="10" stroke-linecap="round" stroke-linejoin="round"/>
<path d="M77.8186 224.109L60.268 240.594L61.1125 242.357L79.4342 224.623L77.8186 224.109Z" fill="white"/>
<path d="M89.6414 236.739L71.3197 250.912L71.6134 252.601L90.082 237.877L89.6414 236.739Z" fill="black" stroke="black" stroke-width="1.2" stroke-miterlimit="10" stroke-linecap="round" stroke-linejoin="round"/>
<path d="M87.5853 251.83C92.799 247.534 92.1014 237.988 85.9697 230.571C79.838 223.154 70.6221 220.621 65.4083 224.916C64.674 225.541 53.1082 238.061 53.1082 238.061L72.3478 261.413C72.3111 261.376 86.8142 252.417 87.5853 251.83Z" stroke="black" stroke-width="1.2" stroke-miterlimit="10" stroke-linecap="round" stroke-linejoin="round"/>
<path d="M72.3098 261.368C75.7203 258.556 74.1763 251.051 68.8611 244.605C63.5459 238.16 56.4723 235.214 53.0618 238.027C49.6513 240.839 51.1953 248.344 56.5105 254.79C61.8257 261.235 68.8993 264.181 72.3098 261.368Z" fill="black" stroke="black" stroke-width="1.2" stroke-miterlimit="10" stroke-linecap="round" stroke-linejoin="round"/>
<path d="M99.7019 222.052L96.8747 218.638C95.7732 217.279 95.9568 215.296 97.3153 214.195L113.581 200.757C114.939 199.655 116.922 199.839 118.024 201.197L120.851 204.612C121.952 205.97 121.769 207.953 120.41 209.055L104.145 222.493C102.823 223.594 100.803 223.411 99.7019 222.052Z" fill="#45E0A8" stroke="black" stroke-width="1.2" stroke-miterlimit="10" stroke-linecap="round" stroke-linejoin="round"/>
<path d="M103.741 218.014C104.917 218.014 105.87 217.06 105.87 215.884C105.87 214.708 104.917 213.754 103.741 213.754C102.565 213.754 101.611 214.708 101.611 215.884C101.611 217.06 102.565 218.014 103.741 218.014Z" fill="black" stroke="black" stroke-width="1.2" stroke-miterlimit="10" stroke-linecap="round" stroke-linejoin="round"/>
<path d="M188.127 18.5906C188.823 16.5354 187.565 14.2527 185.318 13.4921C183.071 12.7315 180.685 13.7809 179.989 15.8361C179.294 17.8913 180.552 20.174 182.799 20.9346C185.046 21.6953 187.432 20.6458 188.127 18.5906Z" fill="#45E0A8"/>
<path d="M198.392 25.0555C199.088 23.0003 197.83 20.7176 195.583 19.957C193.335 19.1963 190.95 20.2458 190.254 22.301C189.559 24.3562 190.816 26.6388 193.064 27.3995C195.311 28.1601 197.697 27.1107 198.392 25.0555Z" fill="white"/>
<path d="M208.553 31.7488C209.249 29.6936 207.991 27.4109 205.743 26.6503C203.496 25.8897 201.11 26.9391 200.415 28.9943C199.719 31.0495 200.977 33.3322 203.224 34.0928C205.472 34.8535 207.857 33.804 208.553 31.7488Z" fill="white"/>
<path d="M119.052 262C120.557 249.664 123.531 230.094 125.881 217.133C128.745 201.528 122.613 202.262 117.877 210.634C113.911 217.61 108.037 228.368 104.989 232.884C100.032 240.154 97.3887 247.204 97.3887 247.204" fill="#45E0A8"/>
<mask id="mask6" mask-type="alpha" maskUnits="userSpaceOnUse" x="97" y="204" width="30" height="59">
<path d="M119.052 262C120.557 249.664 123.531 230.094 125.881 217.133C128.745 201.528 122.613 202.262 117.877 210.634C113.911 217.61 108.037 228.368 104.989 232.884C100.032 240.154 97.3887 247.204 97.3887 247.204" fill="#6EDBFF"/>
</mask>
<g mask="url(#mask6)">
<path d="M129.222 205.42C119.713 205.64 107.082 229.102 107.082 229.102L119.088 200.72L129.222 205.42Z" fill="white"/>
</g>
<path d="M119.052 262C120.557 249.664 123.531 230.094 125.881 217.133C128.745 201.528 122.613 202.262 117.877 210.634C113.911 217.61 108.037 228.368 104.989 232.884C100.032 240.154 97.3887 247.204 97.3887 247.204" stroke="black" stroke-width="1.2" stroke-miterlimit="10" stroke-linecap="round" stroke-linejoin="round"/>
<path d="M90.4859 191.1C90.4859 191.1 95.8098 183.72 109.028 180.599C119.786 178.066 119.969 182.912 117.583 184.748C114.131 187.355 99.3346 189.338 99.3346 189.338L90.4859 191.1Z" fill="#45E0A8"/>
<mask id="mask7" mask-type="alpha" maskUnits="userSpaceOnUse" x="90" y="179" width="29" height="13">
<path d="M90.4859 191.1C90.4859 191.1 95.8098 183.72 109.028 180.599C119.786 178.066 119.969 182.912 117.583 184.748C114.131 187.355 99.3346 189.338 99.3346 189.338L90.4859 191.1Z" fill="#6EDBFF"/>
</mask>
<g mask="url(#mask7)">
<path d="M113.948 179.278C104.842 183.133 94.635 190.256 94.635 190.256L88.9072 191.908L95.7732 184.491L113.948 179.278Z" fill="white"/>
</g>
<path d="M90.4859 191.1C90.4859 191.1 95.8098 183.72 109.028 180.599C119.786 178.066 119.969 182.912 117.583 184.748C114.131 187.355 99.3346 189.338 99.3346 189.338L90.4859 191.1Z" stroke="black" stroke-width="1.2" stroke-miterlimit="10" stroke-linecap="round" stroke-linejoin="round"/>
<path d="M79.9849 202.262C79.9849 202.262 83.3996 193.193 94.9287 188.824C106.458 184.455 119.052 184.675 120.63 187.869C122.173 191.027 114.609 193.891 100.95 195.213C90.4125 196.204 79.9849 202.262 79.9849 202.262Z" fill="#45E0A8"/>
<mask id="mask8" mask-type="alpha" maskUnits="userSpaceOnUse" x="79" y="185" width="42" height="18">
<path d="M79.9849 202.262C79.9849 202.262 83.3996 193.193 94.9287 188.824C106.458 184.455 119.052 184.675 120.63 187.869C122.173 191.027 114.609 193.891 100.95 195.213C90.4125 196.204 79.9849 202.262 79.9849 202.262Z" fill="#6EDBFF"/>
</mask>
<g mask="url(#mask8)">
<path d="M102.382 186.657C90.0087 194.552 83.1426 200.647 83.1426 200.647L76.6071 203.107L86.9612 190.329L102.382 186.657Z" fill="white"/>
</g>
<path d="M79.9849 202.262C79.9849 202.262 83.3996 193.193 94.9287 188.824C106.458 184.455 119.052 184.675 120.63 187.869C122.173 191.027 114.609 193.891 100.95 195.213C90.4125 196.204 79.9849 202.262 79.9849 202.262Z" stroke="black" stroke-width="1.2" stroke-miterlimit="10" stroke-linecap="round" stroke-linejoin="round"/>
<path d="M69.3371 216.986C69.3371 216.986 73.2658 201.822 88.9806 196.534C104.695 191.247 116.702 190.99 116.445 195.213C116.298 197.856 108.551 201.051 101.942 203.29C95.3326 205.53 69.3371 216.986 69.3371 216.986Z" fill="#45E0A8"/>
<mask id="mask9" mask-type="alpha" maskUnits="userSpaceOnUse" x="69" y="192" width="48" height="25">
<path d="M69.3371 216.986C69.3371 216.986 73.2658 201.822 88.9806 196.534C104.695 191.247 116.702 190.99 116.445 195.213C116.298 197.856 108.551 201.051 101.942 203.29C95.3326 205.53 69.3371 216.986 69.3371 216.986Z" fill="#6EDBFF"/>
</mask>
<g mask="url(#mask9)">
<path d="M99.7753 193.229C81.5271 201.27 77.2679 208.797 77.2679 208.797L68.0153 215.517L77.3414 200.206L99.7753 193.229Z" fill="white"/>
</g>
<path d="M69.3371 216.986C69.3371 216.986 73.2658 201.822 88.9806 196.534C104.695 191.247 116.702 190.99 116.445 195.213C116.298 197.856 108.551 201.051 101.942 203.29C95.3326 205.53 69.3371 216.986 69.3371 216.986Z" stroke="black" stroke-width="1.2" stroke-miterlimit="10" stroke-linecap="round" stroke-linejoin="round"/>
<path d="M65.6288 224.035C65.6288 224.035 67.8685 214.342 78.3695 207.659C88.1729 201.418 102.933 198.15 102.786 202.96C102.603 208.247 89.8251 212.873 81.6373 216.068C73.4495 219.262 65.6288 224.035 65.6288 224.035Z" fill="#45E0A8"/>
<mask id="mask10" mask-type="alpha" maskUnits="userSpaceOnUse" x="65" y="200" width="38" height="25">
<path d="M65.6288 224.035C65.6288 224.035 67.8685 214.342 78.3695 207.659C88.1729 201.418 102.933 198.15 102.786 202.96C102.603 208.247 89.8251 212.873 81.6373 216.068C73.4495 219.262 65.6288 224.035 65.6288 224.035Z" fill="#6EDBFF"/>
</mask>
<g mask="url(#mask10)">
<path d="M89.972 201.785C76.5704 210.597 74.6978 214.305 71.173 220.657C67.6482 227.009 62.5446 225.688 62.5446 225.688L68.4927 212.286L89.972 201.785Z" fill="white"/>
</g>
<path d="M65.6288 224.035C65.6288 224.035 67.8685 214.342 78.3695 207.659C88.1729 201.418 102.933 198.15 102.786 202.96C102.603 208.247 89.8251 212.873 81.6373 216.068C73.4495 219.262 65.6288 224.035 65.6288 224.035Z" stroke="black" stroke-width="1.2" stroke-miterlimit="10" stroke-linecap="round" stroke-linejoin="round"/>
<path d="M110.929 278.887C111.805 277.796 111.72 276.274 110.74 275.487C109.76 274.7 108.255 274.946 107.379 276.037C106.503 277.128 106.587 278.65 107.567 279.437C108.548 280.225 110.053 279.978 110.929 278.887Z" fill="#45E0A8" stroke="black" stroke-width="1.2" stroke-miterlimit="10" stroke-linecap="round" stroke-linejoin="round"/>
<path d="M181.03 2.00879L186.207 2.08222L193.477 6.26793L181.03 2.00879Z" fill="black" stroke="black" stroke-width="1.2" stroke-miterlimit="10" stroke-linecap="round" stroke-linejoin="round"/>
</svg>
